<!-- icon666.com - MILLIONS OF FREE VECTOR ICONS --><svg version="1.1" id="Capa_1" xmlns="http://www.w3.org/2000/svg" xmlns:xlink="http://www.w3.org/1999/xlink" x="0px" y="0px" viewBox="0 0 490.667 490.667" style="enable-background:new 0 0 490.667 490.667;" xml:space="preserve"><g><g><g><path d="M418.837,71.829C372.544,25.515,310.912,0,245.333,0C110.059,0,0,110.059,0,245.333 c0,65.579,25.515,127.211,71.829,173.504c46.293,46.315,107.925,71.829,173.504,71.829 c135.275,0,245.333-110.059,245.333-245.333C490.667,179.755,465.152,118.123,418.837,71.829z M245.333,469.333 c-59.883,0-116.139-23.296-158.421-65.579c-42.283-42.283-65.579-98.539-65.579-158.421c0-123.52,100.48-224,224-224 c59.883,0,116.139,23.296,158.421,65.579c42.283,42.283,65.579,98.539,65.579,158.421 C469.333,368.853,368.853,469.333,245.333,469.333z"></path><path d="M250.347,106.837c-41.045-2.837-76.843,27.584-79.659,67.84c-0.405,5.867,4.011,10.965,9.899,11.371 c5.675,0.128,10.965-4.032,11.392-9.899c1.984-28.523,27.584-50.368,56.896-48c14.293,0.981,27.328,7.317,36.715,17.835 c9.323,10.432,13.909,23.765,12.928,37.547c-1.216,17.365-9.344,23.872-21.632,33.685 c-20.757,16.597-46.592,37.269-43.669,113.856c0.213,5.76,4.949,10.261,10.645,10.261c0.128,0,0.277,0,0.427,0 c5.888,0,10.475-5.184,10.24-11.072c-2.496-65.856,16.896-81.387,35.691-96.384c13.632-10.901,27.712-22.165,29.589-48.875 c1.365-19.563-5.12-38.464-18.304-53.248C288.405,117.056,270.229,108.203,250.347,106.837z"></path><path d="M237.867,365.867c-2.133,1.92-3.2,4.693-3.2,7.467s1.067,5.547,3.2,7.68c2.133,1.92,4.693,2.987,7.467,2.987 c2.773,0,5.547-1.067,7.68-3.2c1.92-1.92,2.987-4.693,2.987-7.467s-1.067-5.547-3.2-7.467 C248.96,361.813,241.92,361.813,237.867,365.867z"></path></g></g></g></svg>